<svg width="52" height="52" fill="none" xmlns="http://www.w3.org/2000/svg">
  <path d="m23.0055 27.0879-9.0332 4.6973v-1.3379l7.5097-3.9161-7.5097-3.9062v-1.3379l9.0332 4.6973v1.1035Zm14.0711 0-9.0332 4.6973v-1.3379l7.5097-3.9161-7.5097-3.9062v-1.3379l9.0332 4.6973v1.1035Z" fill="#292929"/>
  <path d="M26 50C12.7452 50 2 39.2548 2 26h-4c0 15.464 12.536 28 28 28v-4Zm24-24c0 13.2548-10.7452 24-24 24v4c15.464 0 28-12.536 28-28h-4ZM26 2c13.2548 0 24 10.7452 24 24h4C54 10.536 41.464-2 26-2v4Zm0-4C10.536-2-2 10.536-2 26h4C2 12.7452 12.7452 2 26 2v-4Z" fill="#F1CDB3"/>
</svg>