<svg width="52" height="52" fill="none" xmlns="http://www.w3.org/2000/svg">
  <path d="M0 26C0 11.6406 11.6406 0 26 0s26 11.6406 26 26-11.6406 26-26 26S0 40.3594 0 26Z" fill="#F1CDB3"/>
  <path d="M29.1035 32h-6.582v-.6934c.1953-.013.498-.039.9082-.0781.4167-.0456.7031-.0911.8594-.1367.2018-.0651.3548-.1693.4589-.3125.1107-.1497.1661-.3711.1661-.6641v-6.8554h-2.4317v-.8203h.5371c.7032 0 1.3314-.1303 1.8848-.3907.5599-.2604.9603-.5403 1.2012-.8398h.8105c-.0195.4232-.039.918-.0586 1.4844-.0195.5664-.0293 1.0742-.0293 1.5234v5.791c0 .2279.0489.433.1465.6152.1042.1758.2507.306.4395.3907.1692.0716.4459.1367.83.1953.3842.0586.6706.0911.8594.0976V32Z" fill="#292929"/>
</svg>