<svg width="30" height="23" fill="none" xmlns="http://www.w3.org/2000/svg">
  <path d="M25.9815 23H4.0191C1.803 23 0 21.2046 0 19.0001V3.9999C0 1.7942 1.8029 0 4.0191 0h21.9617C28.196 0 30 1.7942 30 3.9999v15.0002C30.0006 21.2052 28.1972 23 25.9815 23ZM4.0191 1.1428C2.4356 1.1428 1.1484 2.424 1.1484 4v15.0002c0 1.5754 1.2872 2.857 2.8707 2.857h21.9617c1.583 0 2.8708-1.2816 2.8708-2.857V3.9999c0-1.576-1.2878-2.857-2.8708-2.857H4.0192ZM20.7037 3.36c1.4326 0 2.594 1.1554 2.594 2.5816s-1.1609 2.5823-2.594 2.5823c-1.4331 0-2.594-1.156-2.594-2.5823 0-1.4263 1.1615-2.5816 2.594-2.5816Zm3.6167 0c1.4325 0 2.5947 1.1554 2.5947 2.5816s-1.1615 2.5823-2.5947 2.5823c-1.4331 0-2.594-1.156-2.594-2.5823 0-1.4263 1.1615-2.5816 2.594-2.5816ZM3.0861 16.334h4.7822v1.7142H3.0861v-1.7142Zm6.3486 0h4.7828v1.7142H9.4347v-1.7142Zm6.3473 0h4.7839v1.7142H15.782v-1.7142Zm6.3485 0h4.7839v1.7142h-4.7839v-1.7142ZM3.0861 3.3605h9.0402v1.7142H3.0861V3.3605Zm0 3.4016h4.7834v1.7143H3.086V6.762Z" fill="#292929"/>
</svg>